#!OML:ASF F:\VICON\USERDATA\INSTALL\rory3\rory3.ASF
:FULLY-SPECIFIED
:DEGREES
48
root 0.400889 18.3581 -2.8818 3.43524 -0.994082 1.14424
lowerback 12.0943 0.843159 -3.44698
upperback 1.97383 0.59701 -1.41457
thorax -4.73078 0.338988 0.368682
lowerneck -9.86858 -2.59996 -8.58492
upperneck 5.22558 -3.12273 9.93669
head 3.46023 -1.27785 4.2609
rclavicle 2.78299e-015 -3.97569e-016
rhumerus -31.6643 -0.991062 -80.4784
rradius 31.5824
rwrist 16.2943
rhand -23.4865 1.00777
rfingers 7.12502
rthumb 2.97329 -28.9513
lclavicle 2.78299e-015 -3.97569e-016
lhumerus -32.0735 14.4129 73.3072
lradius 28.3938
lwrist -0.772238
lhand -18.2242 25.4651
lfingers 7.12502
lthumb 8.05395 55.2916
rfemur -17.5422 16.9346 16.4861
rtibia 36.7438
rfoot -22.7538 -15.2161
rtoes -0.395258
lfemur -18.5967 -0.695161 -19.3962
ltibia 36.9444
lfoot -19.0557 7.11338
ltoes -4.80244
49
root 0.400517 18.3249 -2.89184 3.39376 -1.08664 1.15971
lowerback 12.3503 0.931503 -3.52048
upperback 1.98608 0.691394 -1.42433
thorax -4.86322 0.387916 0.381245
lowerneck -9.77754 -2.57692 -8.57022
upperneck 5.1379 -3.10008 10.0061
head 3.41793 -1.26616 4.28186
rclavicle 4.77083e-015 -3.18055e-015
rhumerus -31.6622 -1.01404 -80.3946
rradius 31.6
rwrist 16.3556
rhand -23.3208 0.973404
rfingers 7.12502
rthumb 3.13331 -28.9833
lclavicle 4.77083e-015 -3.18055e-015
lhumerus -32.0926 14.0684 73.392
lradius 28.6413
lwrist -0.269421
lhand -18.4739 25.4418
lfingers 7.12502
lthumb 7.81293 55.2775
rfemur -17.9765 16.734 16.4537
rtibia 37.4688
rfoot -22.8505 -14.9901
rtoes -0.812672
lfemur -18.9597 -0.497914 -19.4027
ltibia 37.6488
lfoot -19.3315 6.95501
ltoes -4.92655
50
root 0.399172 18.2909 -2.90038 3.31001 -1.25206 1.23996
lowerback 12.6211 1.03 -3.67437
upperback 2.00628 0.785678 -1.46294
thorax -4.9962 0.437835 0.407932
lowerneck -9.56116 -2.54757 -8.50628
upperneck 4.89168 -3.0741 10.0806
head 3.30663 -1.25608 4.2966
rclavicle 5.06901e-015 2.94201e-014
rhumerus -31.6176 -1.04374 -80.3433
rradius 31.5469
rwrist 16.5401
rhand -23.0936 0.972665
rfingers 7.12502
rthumb 3.35271 -28.9807
lclavicle 5.06901e-015 2.94201e-014
lhumerus -32.1329 13.7758 73.4363
lradius 28.8751
lwrist -0.0567812
lhand -18.596 25.4493
lfingers 7.12502
lthumb 7.69509 55.2893
rfemur -18.3902 16.5645 16.3661
rtibia 38.2548
rfoot -23.096 -14.704
rtoes -1.12713
lfemur -19.209 -0.338217 -19.4802
ltibia 38.2612
lfoot -19.6177 6.85802
ltoes -4.76428
51
root 0.400507 18.2596 -2.89958 3.15443 -1.38184 1.40327
lowerback 12.8387 1.11054 -3.86479
upperback 2.09752 0.854178 -1.5238
thorax -5.02435 0.473533 0.437235
lowerneck -9.55989 -2.54309 -8.29112
upperneck 4.78997 -3.07787 9.93332
head 3.2704 -1.26078 4.2144
rclavicle -1.18277e-014 1.19271e-014
rhumerus -31.4604 -0.942191 -80.3372
rradius 31.3999
rwrist 16.5846
rhand -23.1303 0.939109
rfingers 7.12502
rthumb 3.31731 -29.0148
lclavicle -1.18277e-014 1.19271e-014
lhumerus -32.1371 13.5372 73.4704
lradius 29.1189
lwrist 0.0939373
lhand -18.6162 25.3307
lfingers 7.12502
lthumb 7.67557 55.1714
rfemur -18.6436 16.3415 16.2101
rtibia 39.072
rfoot -23.5402 -14.362
rtoes -1.12236
lfemur -19.2978 -0.205358 -19.6605
ltibia 38.832
lfoot -19.9827 6.69126
ltoes -4.34081
52
root 0.404083 18.2279 -2.90006 3.00877 -1.47715 1.79004
lowerback 13.0469 1.17204 -4.31217
upperback 2.20632 0.861715 -1.59259
thorax -5.02994 0.482867 0.613212
lowerneck -9.72289 -2.5219 -8.25421
upperneck 4.78261 -3.03612 9.85052
head 3.28895 -1.23882 4.18417
rclavicle -6.85807e-015 4.37326e-015
rhumerus -31.2458 -0.707781 -80.2963
rradius 31.222
rwrist 16.5133
rhand -23.3905 1.30958
rfingers 7.12502
rthumb 3.06599 -28.6481
lclavicle -6.85807e-015 4.37326e-015
lhumerus -32.2203 13.3824 73.5512
lradius 29.5714
lwrist 0.248081
lhand -18.0896 25.2975
lfingers 7.12502
lthumb 8.18382 55.119
rfemur -18.9379 16.1002 15.789
rtibia 39.9212
rfoot -23.9523 -14.0903
rtoes -1.34274
lfemur -19.3844 -0.0702589 -20.1047
ltibia 39.3644
lfoot -20.2875 6.5577
ltoes -4.22147
53
root 0.407572 18.1913 -2.90827 2.82305 -1.65566 2.12111
lowerback 13.4253 1.25267 -4.6958
upperback 2.28083 0.88857 -1.67235
thorax -5.16514 0.502787 0.734841
lowerneck -9.86613 -2.48513 -8.30888
upperneck 4.76647 -2.97297 9.90799
head 3.30362 -1.2026 4.21443
rclavicle -8.94531e-016 -1.59028e-014
rhumerus -30.9911 -0.64925 -80.2437
rradius 30.908
rwrist 16.6188
rhand -23.7714 1.59079
rfingers 7.12502
rthumb 2.69813 -28.3719
lclavicle -8.94531e-016 -1.59028e-014
lhumerus -32.3855 13.3153 73.5384
lradius 30.0785
lwrist 0.193332
lhand -17.471 25.7187
lfingers 7.12502
lthumb 8.78081 55.5161
rfemur -19.2765 16.0017 15.4317
rtibia 40.8084
rfoot -24.257 -13.85
rtoes -1.62517
lfemur -19.4891 0.124746 -20.4769
ltibia 39.9276
lfoot -20.5147 6.43933
ltoes -4.17867
54
root 0.410044 18.1532 -2.91538 2.66241 -1.92081 2.31234
lowerback 13.7866 1.39036 -4.90747
upperback 2.31738 1.01231 -1.74687
thorax -5.3334 0.568538 0.74678
lowerneck -9.93544 -2.47863 -8.28739
upperneck 4.72717 -2.96098 9.92382
head 3.30211 -1.19406 4.21614
rclavicle -1.76918e-014 1.98785e-015
rhumerus -30.8205 -0.706115 -80.154
rradius 30.6477
rwrist 16.6812
rhand -23.7296 1.92504
rfingers 7.12502
rthumb 2.73852 -28.0371
lclavicle -1.76918e-014 1.98785e-015
lhumerus -32.452 13.0348 73.5802
lradius 30.3152
lwrist 0.354416
lhand -17.5678 25.9813
lfingers 7.12502
lthumb 8.68739 55.7825
rfemur -19.6958 16.0037 15.2175
rtibia 41.7227
rfoot -24.5667 -13.6241
rtoes -1.92573
lfemur -19.6608 0.38198 -20.6869
ltibia 40.5464
lfoot -20.7583 6.36617
ltoes -4.24959
